<svg width="320" height="46" viewBox="0 0 320 46" fill="none" xmlns="http://www.w3.org/2000/svg">
<path d="M21.1987 0.000336175C23.3602 -0.0180662 25.4584 0.719577 27.1208 2.08232C28.7832 3.44505 29.9023 5.34472 30.2794 7.44409C32.3111 6.68141 34.5521 6.65874 36.5993 7.38015C38.6465 8.10155 40.3657 9.5197 41.4475 11.3796L41.4512 11.387L41.4931 11.4653C42.5384 13.3001 42.9044 15.4363 42.5285 17.5081C42.1526 19.5799 41.0581 21.4583 39.4325 22.8217C41.1146 24.1858 42.2523 26.0937 42.6437 28.2067C43.035 30.3196 42.6546 32.501 41.57 34.3636L41.5469 34.4019L41.5206 34.4382C40.4452 36.2538 38.7584 37.6399 36.7538 38.3554C34.7492 39.0709 32.5536 39.0704 30.5494 38.354C30.2216 40.469 29.1412 42.3998 27.5017 43.8007C25.8621 45.2016 23.7706 45.9811 21.6015 45.9997C19.4324 46.0182 17.3274 45.2746 15.6635 43.9019C13.9996 42.5292 12.8855 40.6171 12.5206 38.5081C10.5578 39.2449 8.39749 39.2918 6.40371 38.641C4.40994 37.9901 2.70455 36.6813 1.57491 34.9351L1.55116 34.8981L1.59304 34.9672L1.35054 34.5776C1.34255 34.5647 1.33505 34.5515 1.32804 34.5381L1.30929 34.4974C0.263188 32.6631 -0.103539 30.527 0.271953 28.4552C0.647445 26.3834 1.74178 24.5049 3.36742 23.1416C1.68137 21.7779 0.541015 19.868 0.149551 17.7522C-0.241914 15.6365 0.140949 13.4524 1.22991 11.5892L1.25241 11.5516L1.27741 11.5146C2.35571 9.70142 4.04303 8.3174 6.04709 7.60226C8.05115 6.88711 10.2457 6.88589 12.2506 7.59882C12.5907 5.49328 13.6762 3.57472 15.3145 2.18377C16.9528 0.792807 19.0378 0.0194366 21.1993 0.000952635L21.1987 0.000336175ZM21.2487 1.57786C17.1924 1.59265 13.9168 4.84879 13.9318 8.84961C13.9431 9.01667 13.9068 9.18373 13.8268 9.33107C13.7713 9.43396 13.6958 9.52504 13.6046 9.59907C13.5133 9.67311 13.4081 9.72864 13.2951 9.76249C13.182 9.79634 13.0633 9.80784 12.9457 9.79632C12.8282 9.78481 12.714 9.75051 12.6099 9.6954L12.4387 9.60786C8.99493 7.9052 4.7843 9.11839 2.81992 12.4109C2.80903 12.4345 2.79693 12.4575 2.78367 12.4799L2.68804 12.6482C0.826162 16.0388 1.96679 20.2923 5.3168 22.3242C5.45933 22.3961 5.58004 22.5039 5.66666 22.6366C5.75328 22.7694 5.80272 22.9225 5.80995 23.0802C5.81719 23.2379 5.78197 23.3947 5.70787 23.5347C5.63376 23.6747 5.52342 23.7928 5.38805 23.877L5.18742 24.0047L5.06055 24.091C3.59416 25.1122 2.55431 26.6244 2.13482 28.3459C1.71533 30.0674 1.94483 31.8806 2.78054 33.4476L2.87429 33.6177C2.88992 33.6393 2.90492 33.6609 2.91804 33.6843L3.01804 33.8507C5.0493 37.134 9.34743 38.2874 12.7937 36.4393C12.9272 36.3527 13.0817 36.3029 13.2413 36.295C13.4008 36.287 13.5597 36.3212 13.7013 36.394C13.843 36.4669 13.9624 36.5757 14.0472 36.7092C14.132 36.8428 14.1791 36.9962 14.1837 37.1537L14.1956 37.4595L14.1793 37.1581L14.1831 37.3578C14.222 38.5598 14.5637 39.7333 15.1774 40.7725C15.791 41.8117 16.6573 42.6838 17.6981 43.3103L17.8762 43.4139C18.9952 44.0457 20.2631 44.3758 21.5525 44.371C22.8419 44.3662 24.1072 44.0268 25.2214 43.3868C26.3356 42.7468 27.2594 41.8287 27.8998 40.725C28.5403 39.6212 28.8749 38.3706 28.87 37.0989C28.8587 36.9407 28.8907 36.7824 28.9625 36.6405C29.0344 36.4986 29.1435 36.3784 29.2784 36.2922C29.4134 36.206 29.5693 36.1571 29.73 36.1506C29.8906 36.144 30.0501 36.1801 30.1919 36.2549L30.3662 36.3437C33.8062 38.0402 38.01 36.8282 39.9744 33.5413L40.01 33.471C42.0081 30.0571 40.8887 25.6975 37.4869 23.6323C37.3439 23.5606 37.2228 23.4527 37.1358 23.3198C37.0489 23.1868 36.9993 23.0335 36.9921 22.8754C36.9848 22.7174 37.0202 22.5603 37.0946 22.4201C37.169 22.2799 37.2798 22.1618 37.4156 22.0776C39.0231 21.0824 40.1811 19.5157 40.6499 17.7017C41.1188 15.8877 40.8626 13.9654 39.9344 12.3326C39.9195 12.3118 39.9057 12.2902 39.8931 12.2679L39.7931 12.1021C37.7644 8.81448 33.4625 7.6617 30.0169 9.51539C29.8784 9.60491 29.7179 9.65562 29.5525 9.66211C29.3132 9.66959 29.0808 9.58308 28.9062 9.4216C28.7315 9.26012 28.6291 9.03688 28.6212 8.80091C28.6068 4.79393 25.3056 1.56244 21.2493 1.57786H21.2487ZM15.5212 24.9941C15.7389 24.5676 16.1146 24.24 16.5705 24.0792C17.0264 23.9184 17.5275 23.9367 17.9701 24.1304C18.4126 24.324 18.7627 24.6782 18.9478 25.1194C19.1329 25.5607 19.1388 26.0553 18.9643 26.5007C18.6443 27.1739 18.6268 27.5715 18.8431 28.0455L20.4868 31.4977C20.8081 32.1925 21.5056 32.4273 22.0743 32.5642C22.9452 32.7714 23.7248 33.2506 24.297 33.9304C24.8692 34.6102 25.2034 35.4543 25.2496 36.3367C25.2958 37.219 25.0517 38.0925 24.5536 38.8269C24.0555 39.5613 23.3301 40.1173 22.4855 40.4119C21.641 40.7065 20.7225 40.724 19.8671 40.4618C19.0116 40.1996 18.265 39.6717 17.7385 38.9568C17.212 38.242 16.9338 37.3784 16.9455 36.4949C16.9571 35.6114 17.2579 34.7553 17.8031 34.0542C18.2612 33.463 18.3987 33.0494 18.2237 32.3078L17.3424 28.5757C17.2212 28.0949 16.9712 27.8532 16.2606 27.4482C15.8421 27.2103 15.5322 26.8232 15.3946 26.3666C15.2571 25.91 15.3024 25.4187 15.5212 24.9941ZM16.1899 19.0828C16.6747 19.0583 17.1504 19.2183 17.519 19.5298C17.8876 19.8412 18.1209 20.2804 18.1707 20.7566C18.2205 21.2328 18.083 21.7097 17.7866 22.0888C17.4903 22.4679 17.0577 22.7203 16.5781 22.7939C15.8281 22.855 15.4706 23.0387 15.1606 23.4616L12.9593 26.5944C12.5124 27.217 12.6531 27.9321 12.8206 28.4882C13.074 29.3392 13.0416 30.2482 12.7283 31.0796C12.415 31.911 11.8375 32.6201 11.082 33.1012C10.3266 33.5824 9.43365 33.8096 8.5365 33.7492C7.63934 33.6887 6.78606 33.3437 6.104 32.7656C5.42194 32.1876 4.94766 31.4075 4.75195 30.5418C4.55623 29.6761 4.64957 28.7712 5.01804 27.9621C5.38651 27.1531 6.01034 26.4832 6.79646 26.0525C7.58257 25.6218 8.48881 25.4533 9.37993 25.5723C10.1287 25.6709 10.5593 25.5822 11.1212 25.0613L13.9481 22.4395C14.3106 22.0949 14.3943 21.7601 14.3943 20.9495C14.394 20.4705 14.5802 20.0097 14.9145 19.6624C15.2488 19.315 15.7056 19.1075 16.1906 19.0828H16.1899ZM30.2681 26.677C30.7417 26.1813 31.3334 25.8103 31.9895 25.5978C32.6455 25.3853 33.345 25.3379 34.0244 25.4601C34.7361 25.5868 35.4022 25.894 35.9572 26.3515C36.5122 26.809 36.9369 27.401 37.1897 28.0694C37.4425 28.7378 37.5146 29.4596 37.399 30.1638C37.2834 30.868 36.984 31.5304 36.5303 32.086C36.0765 32.6415 35.4841 33.0711 34.8111 33.3324C34.1381 33.5938 33.4077 33.6779 32.6918 33.5766C31.9759 33.4753 31.299 33.192 30.7276 32.7546C30.1563 32.3171 29.7102 31.7406 29.4331 31.0816C29.1456 30.3906 28.8531 30.0675 28.1143 29.8462L24.4106 28.736C23.9262 28.5991 23.5925 28.6928 22.8843 29.0978C22.4982 29.3207 22.0438 29.3994 21.6037 29.3198C21.1202 29.221 20.6949 28.9399 20.4185 28.5364C20.1421 28.1329 20.0364 27.6388 20.1239 27.1595C20.2114 26.6802 20.4853 26.2536 20.8871 25.9706C21.2889 25.6876 21.7869 25.5706 22.275 25.6444C22.7202 25.7228 23.1215 25.9578 23.4043 26.3059C23.8331 26.9187 24.1743 27.1344 24.6943 27.1831L28.5393 27.5024C29.3081 27.5746 29.8694 27.0956 30.2669 26.6764L30.2681 26.677ZM30.135 12.761C30.6209 12.2427 31.2339 11.8564 31.915 11.6395C32.5962 11.4226 33.3224 11.3823 34.0239 11.5225C34.7254 11.6627 35.3785 11.9787 35.9203 12.4401C36.4621 12.9014 36.8743 13.4926 37.1172 14.1567C37.3602 14.8207 37.4257 15.5353 37.3075 16.2316C37.1892 16.9279 36.8912 17.5824 36.4422 18.1321C35.9931 18.6819 35.4081 19.1083 34.7435 19.3704C34.0788 19.6324 33.357 19.7213 32.6475 19.6284C31.9012 19.5285 31.47 19.6185 30.9081 20.1395L28.0856 22.7594C27.7225 23.1052 27.6387 23.4381 27.6387 24.2512C27.6391 24.5516 27.5659 24.8476 27.4254 25.1141C27.2848 25.3806 27.081 25.6096 26.8314 25.7817C26.5818 25.9537 26.2937 26.0638 25.9917 26.1024C25.6897 26.141 25.3827 26.1071 25.0969 26.0035C24.811 25.8999 24.5548 25.7297 24.35 25.5074C24.1452 25.2851 23.9978 25.0173 23.9206 24.7267C23.8433 24.4362 23.8383 24.1315 23.9061 23.8387C23.9739 23.5458 24.1125 23.2735 24.31 23.0448C24.6013 22.7026 25.0081 22.4758 25.4556 22.4062C26.2075 22.3458 26.565 22.1614 26.8687 21.7386L29.0687 18.6063C29.5169 17.9812 29.3737 17.2686 29.2093 16.7107C29.0123 16.056 28.9836 15.3632 29.126 14.6948C29.2684 14.0264 29.5774 13.4036 30.025 12.8825L30.135 12.761ZM20.9275 4.51652C21.7077 4.51616 22.4724 4.73177 23.1345 5.13884C23.7967 5.54591 24.3297 6.12809 24.673 6.81917C25.0163 7.51024 25.156 8.28247 25.0764 9.04803C24.9968 9.81358 24.7009 10.5417 24.2225 11.1496C23.77 11.7377 23.6268 12.1508 23.8118 12.9028L24.6931 16.6226C24.8143 17.1065 25.0643 17.3469 25.7731 17.7507C26.0852 17.9281 26.3392 18.1899 26.5051 18.5053C26.671 18.8206 26.7419 19.1762 26.7094 19.53C26.6769 19.8838 26.5423 20.221 26.3215 20.5018C26.1008 20.7825 25.8032 20.995 25.4639 21.1142C25.1245 21.2333 24.7577 21.2541 24.4068 21.1741C24.0558 21.0941 23.7355 20.9166 23.4836 20.6627C23.2317 20.4087 23.0588 20.0889 22.9854 19.7411C22.912 19.3933 22.9411 19.032 23.0693 18.7C23.3887 18.0262 23.4087 17.6274 23.1906 17.1552L21.5487 13.7011C21.225 13.0064 20.53 12.7715 19.9612 12.6365L19.9525 12.6402C19.0803 12.4306 18.2998 11.9495 17.7265 11.2682C17.1531 10.587 16.8175 9.7417 16.7692 8.85759C16.7208 7.97348 16.9625 7.09752 17.4582 6.35941C17.954 5.6213 18.6776 5.06028 19.5218 4.7594C19.9724 4.59812 20.4481 4.51592 20.9275 4.51652ZM7.90993 11.6656C8.85886 11.4733 9.84607 11.6129 10.7019 12.0605C11.5578 12.5082 12.2289 13.2358 12.5999 14.1185C12.8874 14.8077 13.1812 15.1326 13.9181 15.3539L17.6243 16.4635C18.1068 16.601 18.4418 16.5054 19.1506 16.0998C19.4638 15.921 19.8224 15.8345 20.1839 15.8505C20.5454 15.8665 20.8947 15.9843 21.1905 16.19C21.4862 16.3957 21.716 16.6807 21.8527 17.0112C21.9893 17.3417 22.0271 17.7039 21.9615 18.0549C21.8959 18.406 21.7298 18.7311 21.4827 18.9919C21.2356 19.2527 20.9179 19.4381 20.5672 19.5264C20.2166 19.6146 19.8477 19.6019 19.5041 19.4898C19.1605 19.3776 18.8568 19.1707 18.6287 18.8936C18.1999 18.2808 17.8599 18.0657 17.3381 18.017L13.4956 17.6977C12.7268 17.6249 12.1656 18.1027 11.7681 18.5237C11.2938 19.0187 10.7017 19.3892 10.0456 19.6016C9.38949 19.814 8.69001 19.8616 8.01055 19.74C7.05715 19.5707 6.1933 19.0791 5.56743 18.3498C4.94156 17.6205 4.59274 16.6989 4.58091 15.7435C4.56908 14.7881 4.89497 13.8584 5.50259 13.1143C6.11021 12.3701 6.96163 11.8579 7.91055 11.6656H7.90993ZM71.0707 30.3382C70.0954 31.4045 68.9462 32.3025 67.6707 32.9951C66.3957 33.6868 64.7413 34.032 62.7075 34.0308C61.245 34.0437 59.795 33.762 58.4475 33.2028C57.1878 32.688 56.0443 31.9315 55.0833 30.9773C54.1223 30.0231 53.363 28.8902 52.8494 27.6442C52.3148 26.3591 52.045 24.9819 52.0556 23.5929V23.5164C52.0462 22.1219 52.3159 20.7393 52.8494 19.4478C53.3631 18.1997 54.116 17.0611 55.0669 16.0942C56.0273 15.1253 57.1749 14.3562 58.4419 13.8325C59.8148 13.2686 61.2899 12.9869 62.7769 13.0045C64.7144 13.0045 66.3188 13.306 67.5907 13.9089C68.8661 14.5122 70.0086 15.3572 70.9532 16.3957L67.3982 20.1567C66.797 19.5253 66.1096 18.9796 65.3557 18.5354C64.5509 18.1098 63.6458 17.903 62.7332 17.9362C62.04 17.9266 61.3539 18.0747 60.7282 18.369C60.1297 18.657 59.5963 19.0612 59.16 19.5575C58.7054 20.0748 58.3552 20.673 58.1282 21.32C57.886 22.0004 57.7651 22.717 57.7707 23.4381V23.5127C57.7644 24.2568 57.8875 24.9965 58.1338 25.6999C58.3617 26.3501 58.7187 26.9491 59.1838 27.4618C59.6431 27.9652 60.2026 28.3698 60.8275 28.6503C61.5006 28.9459 62.2308 29.0936 62.9675 29.083C63.851 29.1007 64.7247 28.8987 65.5082 28.4956C66.2905 28.0638 67.0155 27.5379 67.6663 26.9298L71.0707 30.3382ZM78.9413 33.5783H73.1288V6.06013H78.9376L78.9413 33.5789V33.5783ZM103.583 23.5164C103.591 24.9197 103.303 26.3093 102.739 27.5974C102.189 28.8462 101.397 29.9769 100.408 30.9256C99.3926 31.8932 98.1996 32.6607 96.8926 33.1868C95.4864 33.7496 93.9801 34.0314 92.4614 34.0153C90.9571 34.0294 89.4644 33.754 88.067 33.2047C86.7663 32.6995 85.5783 31.9485 84.5695 30.9941C83.5864 30.0485 82.8013 28.9217 82.2588 27.6775C81.6944 26.387 81.4083 24.9947 81.4188 23.5892V23.5127C81.408 22.1072 81.6941 20.7148 82.2588 19.4244C82.8078 18.1754 83.5994 17.0445 84.5888 16.0955C85.603 15.1265 86.7965 14.3589 88.1045 13.8343C89.5107 13.2715 91.017 12.9898 92.5357 13.0064C94.04 12.9924 95.5327 13.2677 96.9301 13.817C98.2315 14.3252 99.4191 15.0803 100.426 16.0394C101.409 16.9849 102.194 18.1118 102.736 19.3559C103.301 20.6465 103.587 22.0388 103.576 23.4443L103.583 23.5164ZM97.8514 23.5929V23.5164C97.8571 22.789 97.7285 22.0667 97.472 21.3847C97.2223 20.7272 96.8436 20.1246 96.3576 19.6116C95.8715 19.0986 95.2877 18.6851 94.6395 18.3949C93.954 18.0879 93.2085 17.9335 92.4557 17.9424C91.688 17.9282 90.926 18.0757 90.2207 18.3751C89.5888 18.6524 89.0229 19.0573 88.5595 19.5637C88.0943 20.0768 87.7366 20.6755 87.507 21.3255C87.2655 22.0042 87.1446 22.7189 87.1495 23.4381V23.5127C87.1457 24.2387 87.2755 24.9593 87.5326 25.6395C88.0365 26.9615 89.0449 28.0366 90.342 28.6349C91.0305 28.9444 91.7804 29.0988 92.537 29.0867C93.3049 29.101 94.0671 28.9535 94.7726 28.654C95.4045 28.3769 95.9704 27.9723 96.4339 27.4661C96.898 26.9557 97.2556 26.3602 97.4864 25.7135C97.7301 25.0311 97.8526 24.3123 97.8476 23.5892L97.8514 23.5929ZM124.406 33.5789H118.593V30.7105C118.259 31.1428 117.896 31.5524 117.506 31.9366C117.106 32.3287 116.665 32.6764 116.187 32.9723C115.687 33.2805 115.147 33.5216 114.581 33.6886C113.937 33.8732 113.268 33.9625 112.596 33.9537C110.381 33.9537 108.669 33.2879 107.459 31.9564C106.25 30.6248 105.645 28.7908 105.645 26.4545V13.3763H111.451V24.6445C111.451 26.0008 111.757 27.0241 112.368 27.7145C112.98 28.4049 113.846 28.7508 114.967 28.752C116.086 28.752 116.971 28.4068 117.621 27.7145C118.271 27.0228 118.596 25.9995 118.596 24.6445V13.3763H124.404L124.406 33.5783V33.5789ZM148.207 33.5789H142.396V30.6735C141.697 31.6127 140.821 32.4103 139.816 33.0228C138.811 33.6381 137.545 33.9457 136.015 33.9475C134.823 33.9503 133.642 33.722 132.539 33.2756C131.413 32.8195 130.398 32.1329 129.561 31.261C128.658 30.3135 127.95 29.2025 127.476 27.9894C126.93 26.5632 126.664 25.0475 126.693 23.5232V23.4492C126.664 21.9247 126.93 20.4088 127.476 18.9824C127.946 17.7705 128.646 16.6582 129.539 15.7053C130.367 14.8297 131.378 14.1416 132.501 13.6882C133.616 13.2374 134.81 13.0072 136.015 13.0107C137.57 13.0107 138.85 13.3128 139.856 13.9157C140.813 14.4786 141.67 15.1906 142.396 16.024V6.06013H148.203L148.207 33.5789ZM142.476 23.517V23.4431C142.487 22.6658 142.352 21.8932 142.079 21.164C141.836 20.5131 141.474 19.9122 141.009 19.3917C140.574 18.91 140.04 18.5251 139.443 18.2623C138.834 18.0015 138.177 17.867 137.513 17.867C136.85 17.867 136.193 18.0015 135.584 18.2623C134.982 18.5274 134.441 18.9118 133.996 19.3917C133.523 19.9058 133.154 20.5039 132.908 21.1541C132.632 21.8893 132.497 22.6689 132.511 23.4529V23.5269C132.5 24.3048 132.635 25.078 132.908 25.8078C133.153 26.4584 133.522 27.0567 133.995 27.5703C134.441 28.051 134.981 28.4362 135.584 28.7021C136.193 28.9629 136.85 29.0974 137.513 29.0974C138.177 29.0974 138.834 28.9629 139.443 28.7021C140.04 28.4385 140.574 28.0527 141.009 27.5703C141.473 27.0528 141.835 26.4553 142.079 25.8078C142.353 25.0742 142.486 24.2956 142.472 23.5133L142.476 23.517ZM177.488 33.5789H171.87V31.3905C171.15 32.1739 170.279 32.808 169.308 33.2559C168.316 33.7207 167.107 33.9531 165.68 33.9531C164.754 33.9598 163.833 33.8279 162.948 33.5616C162.13 33.3165 161.37 32.9124 160.713 32.3731C160.073 31.842 159.558 31.1798 159.204 30.4325C158.82 29.5988 158.631 28.6909 158.65 27.7755V27.7016C158.624 26.7126 158.834 25.7314 159.262 24.8369C159.657 24.0458 160.24 23.3606 160.961 22.8395C161.744 22.286 162.625 21.8836 163.56 21.6535C164.652 21.3803 165.775 21.2485 166.902 21.2614C167.818 21.2502 168.732 21.3258 169.633 21.487C170.407 21.6338 171.168 21.8323 171.913 22.0819V21.7429C171.913 20.5371 171.544 19.6235 170.805 19.0021C170.067 18.3807 168.972 18.0669 167.52 18.0601C166.525 18.0478 165.532 18.1427 164.558 18.3425C163.642 18.5493 162.741 18.8202 161.864 19.1531L160.4 14.7713C161.537 14.2869 162.713 13.894 163.915 13.5964C165.368 13.2701 166.856 13.1182 168.346 13.1439C171.53 13.1439 173.846 13.9101 175.293 15.4426C176.741 16.9752 177.469 19.1106 177.477 21.8489L177.489 33.5789H177.488ZM171.988 26.4582V25.4441C170.82 24.9389 169.558 24.682 168.282 24.6902C167.033 24.6902 166.052 24.9287 165.34 25.4065C164.995 25.6305 164.715 25.9393 164.527 26.3025C164.34 26.6656 164.251 27.0707 164.27 27.4778V27.5542C164.254 27.904 164.325 28.2524 164.479 28.5682C164.632 28.884 164.863 29.1573 165.15 29.3635C165.736 29.7907 166.5 30.004 167.44 30.004C168.815 30.004 169.917 29.6773 170.745 29.0251C171.144 28.7242 171.464 28.3341 171.679 27.8872C171.894 27.4402 171.999 26.9491 171.984 26.4545L171.988 26.4582ZM198.537 30.3388C197.561 31.4031 196.413 32.2998 195.138 32.992C193.863 33.6837 192.21 34.0289 190.176 34.0277C188.713 34.0404 187.264 33.7585 185.915 33.1992C184.656 32.6842 183.512 31.9277 182.551 30.9735C181.59 30.0193 180.831 28.8864 180.318 27.6405C179.783 26.3556 179.513 24.9786 179.524 23.5898V23.5133C179.515 22.1188 179.784 20.7362 180.318 19.4447C180.831 18.1967 181.584 17.0581 182.535 16.0912C183.495 15.122 184.643 14.3527 185.91 13.8288C187.283 13.2648 188.758 12.9831 190.245 13.0009C192.181 13.0009 193.786 13.3029 195.059 13.9058C196.334 14.5099 197.477 15.3545 198.422 16.392L194.868 20.1573C194.266 19.5258 193.578 18.9801 192.823 18.536C192.125 18.1341 191.253 17.9331 190.207 17.9331C189.514 17.9235 188.828 18.0716 188.202 18.3659C187.604 18.6541 187.072 19.0583 186.636 19.5544C186.181 20.0715 185.831 20.6695 185.604 21.3163C185.359 21.9997 185.236 22.72 185.241 23.4449V23.5189C185.237 24.2615 185.362 24.9993 185.61 25.7005C185.838 26.3508 186.195 26.9497 186.66 27.4624C187.119 27.9658 187.679 28.3704 188.303 28.6509C188.977 28.9468 189.707 29.0948 190.443 29.0837C191.326 29.1016 192.2 28.8995 192.982 28.4962C193.765 28.065 194.491 27.539 195.142 26.9304L198.537 30.3388ZM217.945 33.5789H212.329V31.3905C211.609 32.173 210.739 32.807 209.769 33.2559C208.776 33.7207 207.566 33.9531 206.14 33.9531C205.214 33.9601 204.294 33.8281 203.408 33.5616C202.59 33.3169 201.83 32.9128 201.173 32.3731C200.533 31.8415 200.018 31.1795 199.662 30.4325C199.279 29.5988 199.089 28.6909 199.108 27.7755V27.7016C199.083 26.7127 199.293 25.7318 199.72 24.8369C200.116 24.0461 200.7 23.361 201.421 22.8395C202.203 22.2857 203.085 21.8832 204.02 21.6535C205.112 21.3801 206.236 21.2483 207.362 21.2614C208.278 21.2503 209.192 21.3259 210.094 21.487C210.865 21.6362 211.624 21.8384 212.367 22.0899V21.7435C212.367 20.5371 211.998 19.6235 211.259 19.0021C210.521 18.3807 209.425 18.0669 207.974 18.0601C206.979 18.0479 205.986 18.1426 205.012 18.3425C204.095 18.5493 203.195 18.8202 202.318 19.1531L200.867 14.7806C202.004 14.2962 203.18 13.9034 204.381 13.6062C205.835 13.2799 207.323 13.128 208.813 13.1537C211.998 13.1537 214.314 13.92 215.761 15.4525C217.209 16.985 217.937 19.1204 217.945 21.8588V33.5789ZM212.442 26.4582V25.4441C211.896 25.2057 211.327 25.0224 210.743 24.8973C210.084 24.7551 209.411 24.6857 208.737 24.6902C207.49 24.6902 206.509 24.9287 205.794 25.4065C205.449 25.6308 205.169 25.9396 204.982 26.3028C204.795 26.6659 204.707 27.0708 204.726 27.4778V27.5542C204.709 27.9038 204.781 28.2521 204.934 28.5678C205.087 28.8835 205.317 29.1569 205.604 29.3635C206.188 29.7907 206.953 30.004 207.897 30.004C209.272 30.004 210.373 29.6773 211.202 29.0251C211.6 28.7245 211.921 28.3345 212.137 27.8875C212.352 27.4405 212.457 26.9493 212.442 26.4545V26.4582ZM241.555 33.5789H235.747V30.6735C235.048 31.6133 234.172 32.411 233.166 33.0228C232.162 33.6381 230.895 33.9457 229.365 33.9475C228.172 33.9475 226.992 33.717 225.89 33.2676C224.764 32.8115 223.749 32.1249 222.912 31.253C222.011 30.3077 221.304 29.1995 220.829 27.9894C220.28 26.5639 220.01 25.0482 220.035 23.5232V23.4492C220.01 21.9235 220.279 20.4082 220.829 18.9824C221.299 17.7705 221.999 16.6582 222.892 15.7053C223.72 14.8298 224.73 14.1417 225.854 13.6882C226.968 13.2371 228.162 13.0069 229.367 13.0107C230.92 13.0107 232.201 13.3128 233.208 13.9157C234.165 14.4781 235.022 15.1901 235.747 16.024V6.06013H241.555V33.5789ZM235.832 23.5133V23.4394C235.843 22.6619 235.709 21.8891 235.435 21.1597C235.193 20.509 234.83 19.9083 234.365 19.388C233.93 18.9061 233.397 18.5209 232.799 18.258C232.19 17.9972 231.534 17.8627 230.87 17.8627C230.206 17.8627 229.549 17.9972 228.94 18.258C228.338 18.5233 227.798 18.9079 227.352 19.388C226.88 19.9019 226.511 20.4998 226.265 21.1498C225.988 21.8851 225.853 22.665 225.867 23.4492V23.5232C225.856 24.3011 225.991 25.0743 226.264 25.8041C226.509 26.4547 226.878 27.053 227.352 27.5666C227.797 28.047 228.338 28.4321 228.94 28.6978C229.549 28.9586 230.206 29.0931 230.87 29.0931C231.534 29.0931 232.19 28.9586 232.799 28.6978C233.397 28.4343 233.93 28.0487 234.365 27.5666C234.829 27.0492 235.192 26.4516 235.435 25.8041C235.71 25.0711 235.845 24.2944 235.832 23.5133ZM263.876 24.0423C263.876 24.3178 263.876 24.557 263.856 24.7586C263.836 24.9602 263.824 25.1969 263.799 25.4737H249.547C249.828 26.7787 250.407 27.7644 251.286 28.4314C252.165 29.0985 253.254 29.4313 254.554 29.4301C255.444 29.4451 256.328 29.2785 257.15 28.9406C258.022 28.5433 258.822 28.0091 259.52 27.3588L262.83 30.2586C261.879 31.4264 260.679 32.3724 259.314 33.029C257.939 33.6948 256.322 34.0277 254.462 34.0277C253.007 34.041 251.562 33.7853 250.202 33.2737C248.93 32.7958 247.772 32.0623 246.802 31.1198C245.841 30.1814 245.081 29.0622 244.567 27.8286C244.02 26.4813 243.751 25.0406 243.773 23.5898V23.5133C243.765 22.1236 244.017 20.7443 244.517 19.4447C244.988 18.2061 245.695 17.0678 246.6 16.0912C247.526 15.0977 248.656 14.3088 249.913 13.7762C251.171 13.2436 252.528 12.9794 253.897 13.0009C255.604 13.0009 257.082 13.3029 258.329 13.9058C259.536 14.4774 260.599 15.3074 261.44 16.3353C262.278 17.3737 262.901 18.5647 263.272 19.8405C263.671 21.18 263.872 22.5695 263.868 23.9658L263.875 24.0423H263.876ZM258.22 21.8883C258.042 20.6049 257.583 19.5686 256.845 18.7789C256.106 17.9899 255.124 17.5953 253.897 17.5984C252.675 17.5984 251.689 17.9899 250.937 18.7734C250.185 19.5563 249.695 20.6006 249.466 21.9056L258.22 21.8883H258.22ZM297.457 33.5696H291.651V22.31C291.651 20.9538 291.357 19.9299 290.772 19.2376C290.186 18.5459 289.341 18.1995 288.239 18.1982C287.143 18.1982 286.282 18.5434 285.658 19.2339C285.033 19.9243 284.723 20.9495 284.727 22.31V33.5758H278.921V22.3106C278.921 20.9544 278.627 19.9305 278.041 19.2382C277.455 18.5465 276.615 18.2001 275.521 18.1988C274.424 18.1988 273.564 18.5441 272.939 19.2345C272.315 19.9249 272.004 20.9501 272.005 22.3106V33.5764H266.204V13.3763H272.011V16.241C272.346 15.8094 272.711 15.3995 273.101 15.0154C273.499 14.6228 273.942 14.2757 274.419 13.9798C274.924 13.6682 275.47 13.4269 276.042 13.2628C276.694 13.0809 277.37 12.9924 278.047 13.0002C279.266 12.9686 280.472 13.2544 281.543 13.8288C282.523 14.3802 283.314 15.2068 283.816 16.2034C284.629 15.2104 285.643 14.3958 286.794 13.8115C287.96 13.2553 289.242 12.9774 290.537 13.0002C292.704 13.0002 294.397 13.6284 295.619 14.8841C296.841 16.1399 297.452 17.9862 297.454 20.423L297.457 33.569V33.5696ZM320 13.3763L312.121 34.0585C311.796 34.9669 311.386 35.8438 310.898 36.6784C310.517 37.3361 310.033 37.9307 309.465 38.4403C308.948 38.8898 308.339 39.2238 307.679 39.4192C306.934 39.6317 306.161 39.7333 305.386 39.7207C304.43 39.7361 303.477 39.6093 302.559 39.3446C301.745 39.0943 300.963 38.7529 300.228 38.3269L302.178 34.1818C302.57 34.4132 302.986 34.6029 303.419 34.7477C303.817 34.8895 304.237 34.9653 304.661 34.9727C305.081 34.9949 305.499 34.8969 305.864 34.6904C306.223 34.4199 306.506 34.0634 306.686 33.6547L298.672 13.3763H304.826L309.479 27.1307L313.947 13.3763H320Z" fill="#005EEC"/>
</svg>
