<svg width="289" height="47" viewBox="0 0 289 47" fill="none" xmlns="http://www.w3.org/2000/svg">
<path d="M288.87 19.479C289.028 19.7209 289.043 20.0321 288.908 20.2883L278.589 45.5348C278.525 45.6873 278.419 45.8184 278.285 45.9132C278.151 46.008 277.993 46.0628 277.83 46.0713H274.198C274.055 46.0831 273.912 46.0555 273.783 45.9914C273.655 45.9272 273.546 45.8288 273.468 45.7068C273.39 45.5847 273.346 45.4435 273.341 45.2982C273.336 45.1528 273.37 45.0088 273.439 44.8814L276.955 35.8791L271.425 20.2889C271.358 20.1631 271.327 20.0213 271.333 19.8787C271.34 19.736 271.385 19.5979 271.463 19.4791C271.541 19.3603 271.649 19.2652 271.776 19.204C271.903 19.1428 272.044 19.1178 272.184 19.1317H275.816C275.976 19.1174 276.135 19.1596 276.268 19.2513C276.4 19.3429 276.497 19.4783 276.542 19.6343L279.679 30.246H279.762L283.74 19.6343C284.004 19.1655 284.302 19.1317 284.846 19.1317H288.148C288.433 19.103 288.711 19.2365 288.87 19.479ZM175.556 18.7459C176.809 18.7387 178.048 19.0078 179.188 19.5346C180.328 20.0613 181.342 20.8332 182.16 21.7969C182.54 22.1826 182.357 22.6853 181.978 23.0711L180.327 24.8479C179.948 25.2675 179.535 25.0657 179.188 24.731C178.746 24.2412 178.207 23.851 177.607 23.5853C177.007 23.3197 176.359 23.1845 175.705 23.1886C175.081 23.1832 174.462 23.3071 173.887 23.5527C173.312 23.7984 172.792 24.1606 172.359 24.6172C171.926 25.0738 171.59 25.6152 171.37 26.2083C171.151 26.8015 171.053 27.4338 171.082 28.0668C171.043 28.7016 171.134 29.3377 171.347 29.9356C171.561 30.5335 171.893 31.0804 172.324 31.5425C172.754 32.0046 173.273 32.3721 173.849 32.622C174.425 32.8719 175.046 32.9991 175.672 32.9955C176.399 32.987 177.114 32.8051 177.759 32.4644C178.404 32.1237 178.962 31.6338 179.386 31.0341C179.522 30.8826 179.708 30.787 179.909 30.7653C180.11 30.7437 180.311 30.7975 180.475 30.9166L182.127 32.3753C182.54 32.7605 182.738 33.1967 182.424 33.6495C181.694 34.8364 180.668 35.8068 179.451 36.4631C178.234 37.1194 176.868 37.4383 175.49 37.3877C174.255 37.4417 173.022 37.2412 171.865 36.7984C170.708 36.3556 169.651 35.6796 168.758 34.8111C167.865 33.9426 167.155 32.8995 166.669 31.7448C166.184 30.5901 165.934 29.3476 165.934 28.092C165.934 26.8365 166.184 25.594 166.669 24.4393C167.155 23.2845 167.865 22.2415 168.758 21.373C169.651 20.5045 170.708 19.8285 171.865 19.3857C173.022 18.9429 174.255 18.7424 175.49 18.7964L175.556 18.7459ZM192.908 18.7459C198.355 18.7459 199.511 21.6295 199.511 26.4912V36.0631C199.511 36.5291 199.144 36.9091 198.685 36.9183H197.398C197.084 36.9183 196.869 36.8008 196.638 36.2981L196.143 35.1076C195.416 35.828 194.556 36.3958 193.613 36.7784C192.669 37.161 191.661 37.3509 190.645 37.3373C189.849 37.3875 189.052 37.2638 188.307 36.9745C187.562 36.6853 186.886 36.2372 186.326 35.6605C185.766 35.0838 185.334 34.3919 185.06 33.6314C184.786 32.8709 184.675 32.0595 184.735 31.2519C184.818 28.1006 187.36 25.6692 191.784 25.6692C192.902 25.6916 194.012 25.8607 195.086 26.1725C195.086 23.9096 194.508 22.8194 192.659 22.8194C190.99 22.8481 189.328 23.0676 187.707 23.4734C187.146 23.6746 186.799 23.2556 186.733 22.7191L186.353 20.7073C186.312 20.5998 186.295 20.4847 186.302 20.3698C186.309 20.2548 186.34 20.1427 186.393 20.041C186.446 19.9393 186.52 19.8503 186.61 19.7802C186.7 19.71 186.804 19.6603 186.914 19.6343C188.863 19.0625 190.879 18.7636 192.908 18.7459ZM104.815 18.7459C110.28 18.7459 111.419 21.6295 111.419 26.4912V36.0631C111.419 36.5354 111.042 36.9183 110.577 36.9183H109.289C108.992 36.9183 108.761 36.8008 108.53 36.2981L108.034 35.1076C107.308 35.8295 106.449 36.3982 105.505 36.7809C104.561 37.1636 103.552 37.3527 102.536 37.3373C101.74 37.3875 100.943 37.2638 100.198 36.9745C99.4528 36.6853 98.7775 36.2372 98.2174 35.6605C97.6574 35.0838 97.2256 34.3919 96.9512 33.6314C96.6767 32.8709 96.566 32.0595 96.6265 31.2519C96.7259 28.1006 99.2682 25.6692 103.709 25.6692C104.827 25.6893 105.937 25.8584 107.011 26.1725C107.011 23.9096 106.45 22.8194 104.584 22.8194C102.914 22.8481 101.253 23.0676 99.6311 23.4734C99.0537 23.6746 98.7235 23.2556 98.6405 22.7191L98.2612 20.7073C98.2205 20.5998 98.2029 20.4847 98.2098 20.3698C98.2167 20.2548 98.2477 20.1427 98.3009 20.041C98.3541 19.9393 98.4282 19.8503 98.5181 19.7802C98.6081 19.71 98.7118 19.6603 98.8223 19.6343C100.771 19.0625 102.787 18.7636 104.815 18.7459ZM237.82 21.0988C238.573 21.8697 239.163 22.7889 239.553 23.7998C239.943 24.8107 240.126 25.892 240.09 26.9772C240.09 27.2455 240.09 27.8656 240.007 28.1339C239.988 28.3463 239.894 28.5445 239.742 28.6922C239.591 28.84 239.392 28.9274 239.182 28.9386H227.956C227.975 29.5001 228.103 30.0523 228.332 30.5636C228.562 31.0748 228.888 31.5351 229.293 31.9181C229.698 32.3012 230.173 32.5994 230.691 32.7958C231.21 32.9921 231.761 33.0828 232.314 33.0626C233.676 33.0901 235.004 32.627 236.062 31.7552C236.491 31.4027 236.937 31.3694 237.201 31.7552L238.686 33.7498C238.765 33.8265 238.826 33.9199 238.865 34.0232C238.904 34.1266 238.92 34.2374 238.912 34.3478C238.904 34.4581 238.873 34.5654 238.819 34.662C238.766 34.7585 238.693 34.842 238.604 34.9065C236.791 36.4895 234.474 37.3529 232.083 37.3373C230.892 37.3379 229.713 37.0948 228.617 36.6225C227.52 36.1503 226.529 35.4585 225.701 34.5885C224.874 33.7186 224.228 32.6882 223.801 31.5591C223.375 30.4299 223.177 29.225 223.219 28.0164C223.183 26.8146 223.386 25.6178 223.813 24.4967C224.241 23.3755 224.885 22.3527 225.709 21.4886C226.532 20.6245 227.517 19.9367 228.607 19.4656C229.696 18.9945 230.867 18.7498 232.051 18.7459C233.12 18.7179 234.183 18.9122 235.176 19.3169C236.168 19.7215 237.068 20.3279 237.821 21.0988H237.82ZM219.355 9.97869C219.574 9.98264 219.784 10.0717 219.94 10.2275C220.097 10.3833 220.189 10.5942 220.197 10.8167V36.0637C220.197 36.536 219.82 36.9189 219.355 36.9189H217.952C217.539 36.9189 217.274 36.5669 217.127 36.0637L216.664 34.6726C215.958 35.5094 215.082 36.181 214.096 36.6411C213.11 37.1012 212.037 37.3389 210.952 37.3379C206.164 37.3379 202.565 33.4151 202.565 28.017C202.493 26.8186 202.664 25.6179 203.069 24.4898C203.474 23.3617 204.103 22.3305 204.918 21.4605C205.733 20.5906 206.716 19.9006 207.805 19.4336C208.894 18.9666 210.067 18.7327 211.249 18.7465C212.683 18.7488 214.107 18.9981 215.459 19.4842V10.8178C215.475 10.6007 215.566 10.3964 215.718 10.2424C215.869 10.0884 216.071 9.99497 216.284 9.97927L219.355 9.97869ZM58.6891 10.0624C59.1915 10.0624 59.5979 10.4751 59.5979 10.9846V21.3779L69.1563 10.4475C69.2388 10.3256 69.3499 10.2266 69.4796 10.1593C69.6093 10.092 69.7535 10.0587 69.8991 10.0624H73.6962C73.856 10.0551 74.0142 10.0971 74.15 10.1828C74.2859 10.2686 74.393 10.394 74.4573 10.5428C74.5216 10.6915 74.5401 10.8564 74.5103 11.016C74.4806 11.1756 74.404 11.3223 74.2906 11.4368L64.385 22.7529L75.0007 35.6441C75.0919 35.7714 75.1468 35.9219 75.1592 36.0788C75.1716 36.2358 75.1411 36.3932 75.0711 36.5337C75.001 36.6742 74.8942 36.7923 74.7622 36.875C74.6303 36.9578 74.4784 37.0019 74.3233 37.0025H70.1966C70.0688 37.0099 69.941 36.9897 69.8214 36.9434C69.7019 36.8971 69.5933 36.8256 69.5029 36.7337L59.5973 24.3286V36.0631C59.5973 36.5755 59.1937 36.9928 58.6897 37.002H55.3876C55.2669 37.002 55.1475 36.9776 55.0362 36.9302C54.925 36.8828 54.8241 36.8134 54.7395 36.726C54.655 36.6386 54.5884 36.535 54.5438 36.4212C54.4991 36.3073 54.4772 36.1856 54.4794 36.0631V10.9009C54.4963 10.6696 54.5999 10.4536 54.769 10.2975C54.9381 10.1415 55.1597 10.0573 55.3882 10.0624H58.6891ZM153.468 9.64339C153.602 9.63769 153.735 9.67506 153.848 9.75023C153.96 9.82541 154.047 9.93459 154.095 10.0624L165.767 35.9628C165.823 36.071 165.849 36.1923 165.844 36.3143C165.838 36.4363 165.801 36.5546 165.735 36.657C165.67 36.7595 165.578 36.8423 165.471 36.8971C165.363 36.9519 165.244 36.9766 165.123 36.9687H161.821C161.579 36.984 161.338 36.9163 161.137 36.7765C160.937 36.6367 160.788 36.4328 160.715 36.1972L158.866 32.04H147.607L145.741 36.1972C145.662 36.4254 145.514 36.6225 145.319 36.7609C145.123 36.8993 144.89 36.972 144.652 36.9687H141.35C141.22 36.9909 141.087 36.9734 140.968 36.9185C140.848 36.8635 140.747 36.7736 140.678 36.6602C140.609 36.5469 140.575 36.4152 140.58 36.282C140.585 36.1488 140.629 36.0201 140.706 35.9124L152.444 10.0624C152.491 9.94459 152.57 9.84273 152.671 9.76865C152.773 9.69458 152.893 9.65134 153.018 9.64396L153.468 9.64339ZM81.6866 9.97869C81.9058 9.98264 82.1153 10.0717 82.2719 10.2275C82.4285 10.3833 82.5204 10.5942 82.5288 10.8167V20.2556C83.7873 19.2243 85.37 18.6884 86.9863 18.7465C92.5659 18.7465 94.0848 22.6693 94.0848 27.1285V36.0471C94.0767 36.2712 93.9854 36.484 93.8291 36.6426C93.6729 36.8013 93.4634 36.894 93.2426 36.9022H90.172C89.9516 36.8977 89.7417 36.8057 89.5874 36.6458C89.4331 36.4859 89.3468 36.2709 89.3468 36.0471V27.0947C89.3468 24.6301 88.2405 23.1381 86.1605 23.1381C85.2852 23.1204 84.4336 23.4273 83.7652 24.0012C83.0967 24.5752 82.6571 25.3768 82.5288 26.2562V36.0631C82.5288 36.5664 82.2973 36.9183 81.6042 36.9183H78.616C78.3969 36.9098 78.1892 36.8165 78.0358 36.6575C77.8823 36.4984 77.7946 36.2857 77.7907 36.0631V10.8167C77.8062 10.5996 77.8981 10.3955 78.0496 10.2416C78.2012 10.0877 78.4022 9.99438 78.616 9.97869H81.6866ZM257.028 21.4284C257.723 20.5922 258.586 19.9181 259.561 19.4522C260.535 18.9864 261.598 18.7398 262.675 18.7293C268.271 18.7293 269.608 22.3506 269.608 26.96V36.0465C269.606 36.161 269.582 36.274 269.537 36.379C269.492 36.484 269.427 36.5789 269.345 36.6583C269.264 36.7377 269.168 36.8001 269.063 36.8419C268.958 36.8836 268.846 36.904 268.733 36.9017H265.696C265.476 36.8973 265.266 36.8053 265.111 36.6454C264.957 36.4855 264.87 36.2705 264.87 36.0465V26.8265C264.87 24.5298 264.029 23.1049 261.833 23.1049C261.163 23.0335 260.488 23.172 259.897 23.5015C259.307 23.8311 258.83 24.3361 258.531 24.9488V36.0133C258.527 36.2358 258.439 36.4483 258.286 36.6072C258.132 36.7661 257.925 36.8594 257.706 36.8679H254.8C254.689 36.8702 254.578 36.8497 254.475 36.8076C254.372 36.7655 254.278 36.7026 254.199 36.6228C254.121 36.543 254.059 36.4478 254.017 36.3431C253.976 36.2383 253.955 36.1262 253.958 36.0133V26.8265C253.958 24.5298 253.314 23.1049 251.085 23.1049C250.309 23.1241 249.562 23.4071 248.964 23.9086C248.365 24.4102 247.949 25.1012 247.783 25.871V36.0293C247.779 36.2518 247.691 36.4644 247.538 36.6233C247.384 36.7822 247.177 36.8754 246.958 36.8839H243.887C243.668 36.8754 243.461 36.7822 243.307 36.6233C243.154 36.4644 243.066 36.2518 243.062 36.0293L242.897 19.9863C242.897 19.5203 243.264 19.1403 243.722 19.1311H245.092C245.251 19.114 245.409 19.1555 245.54 19.2478C245.67 19.3402 245.764 19.4772 245.802 19.6338L246.446 21.3103C247.078 20.4868 247.891 19.8246 248.82 19.3764C249.748 18.9282 250.767 18.7064 251.795 18.7287C252.823 18.6817 253.845 18.9056 254.762 19.3786C255.679 19.8515 256.46 20.5575 257.029 21.4278L257.028 21.4284ZM124.792 18.7631C130.355 18.7631 131.791 22.5684 131.791 26.8769V36.0803C131.776 36.2912 131.685 36.4891 131.536 36.6371C131.387 36.785 131.191 36.873 130.983 36.8845H127.846C127.623 36.8845 127.409 36.7945 127.251 36.6342C127.093 36.474 127.004 36.2566 127.004 36.0299V26.8265C127.004 24.5298 126.096 23.1049 123.983 23.1049C123.139 23.0815 122.311 23.3393 121.626 23.8388C120.94 24.3383 120.434 25.0521 120.186 25.871V36.0293C120.186 36.6827 119.922 36.8839 119.096 36.8839H116.289C116.069 36.8755 115.859 36.7828 115.703 36.6243C115.547 36.4658 115.456 36.2533 115.448 36.0293V19.9863C115.448 19.514 115.824 19.1311 116.289 19.1311H117.775C118.114 19.1047 118.422 19.3317 118.502 19.6676L119.145 21.3441C119.83 20.5048 120.695 19.8358 121.674 19.3884C122.652 18.9409 123.719 18.7274 124.792 18.7631ZM192.479 28.7208C190.465 28.7208 189.375 29.6763 189.375 31.2519C189.349 31.5925 189.397 31.9348 189.515 32.2544C189.634 32.5741 189.82 32.8633 190.061 33.1017C190.302 33.34 190.592 33.5216 190.91 33.6336C191.228 33.7456 191.566 33.7853 191.901 33.7498C192.541 33.7313 193.167 33.5477 193.718 33.2164C194.27 32.885 194.729 32.4167 195.054 31.8555V29.2573C194.236 28.9146 193.363 28.7325 192.479 28.7208ZM104.387 28.7208C102.372 28.7208 101.283 29.6763 101.283 31.2519C101.259 31.5933 101.31 31.9358 101.43 32.2554C101.551 32.5749 101.739 32.8638 101.981 33.1018C102.223 33.3397 102.514 33.5211 102.833 33.633C103.151 33.7449 103.49 33.7848 103.825 33.7498C104.463 33.7316 105.087 33.548 105.636 33.2165C106.185 32.885 106.641 32.4165 106.962 31.8555V29.2573C106.145 28.9146 105.271 28.7325 104.387 28.7208ZM211.811 23.1381C211.202 23.1451 210.601 23.2795 210.046 23.5331C209.49 23.7867 208.993 24.1539 208.583 24.6118C208.174 25.0698 207.863 25.6085 207.668 26.1943C207.474 26.7801 207.4 27.4004 207.452 28.0164C207.452 30.5315 208.856 32.9456 211.596 32.9456C212.41 32.9821 213.216 32.7657 213.906 32.3254C214.596 31.8851 215.138 31.2418 215.459 30.481V24.144C214.359 23.4704 213.095 23.122 211.811 23.1381ZM153.286 19.2492H153.171L149.457 27.7149H157.066L153.286 19.2492ZM228.336 25.7867H235.352C235.305 24.9389 234.933 24.1433 234.316 23.5701C233.699 22.9969 232.886 22.6914 232.05 22.7191C231.162 22.6515 230.283 22.9318 229.592 23.5023C228.901 24.0728 228.452 24.8903 228.336 25.7867Z" fill="black"/>
<path d="M2.72405 9.72717C1.93563 10.2339 1.27734 10.9239 0.803655 11.7402C0.329965 12.5565 0.0544838 13.4756 0 14.4214L0 32.5262C0.0544838 33.472 0.329965 34.3911 0.803655 35.2074C1.27734 36.0237 1.93563 36.7137 2.72405 37.2204L18.7212 46.3064C19.5692 46.7283 20.501 46.9476 21.4453 46.9476C22.3896 46.9476 23.3213 46.7283 24.1693 46.3064L40.1829 37.2199C40.9712 36.7132 41.6294 36.0233 42.1031 35.2071C42.5768 34.3909 42.8523 33.4719 42.9069 32.5262V14.4209C42.8523 13.4751 42.5768 12.5561 42.1031 11.7399C41.6294 10.9238 40.9712 10.2338 40.1829 9.72717L24.1857 0.641263C23.3377 0.219349 22.4059 0 21.4616 0C20.5173 0 19.5856 0.219349 18.7376 0.641263L2.72405 9.72659V9.72717Z" fill="#14BF96"/>
<path d="M37.8883 18.981C29.0061 18.981 22.3698 26.4574 22.3698 35.6276V36.0133H20.5867V35.6276C20.5867 26.4574 13.9826 19.0142 5.03489 18.981V20.6575C5.01735 24.0451 6.0201 27.3572 7.90871 30.1498C9.79732 32.9423 12.4815 35.0819 15.6015 36.2815C17.5001 36.9883 19.5061 37.3513 21.5282 37.3539C23.5662 37.3512 25.5881 36.9883 27.5035 36.2815C30.619 35.077 33.2983 32.9356 35.1834 30.1437C37.0685 27.3517 38.0697 24.042 38.0531 20.6569C37.9702 20.121 37.9374 19.5507 37.8883 18.981Z" fill="white"/>
<path d="M21.4617 19.6848C24.1969 19.6848 26.4142 17.4332 26.4142 14.6558C26.4142 11.8783 24.1969 9.62677 21.4617 9.62677C18.7265 9.62677 16.5092 11.8783 16.5092 14.6558C16.5092 17.4332 18.7265 19.6848 21.4617 19.6848Z" fill="white"/>
</svg>
