<svg width="209" height="40" viewBox="0 0 209 40" fill="none" xmlns="http://www.w3.org/2000/svg">
<circle cx="189" cy="20" r="20" fill="#184B4B"/>
<path d="M197.713 18.9131C197.713 18.5252 197.648 18.0727 197.648 17.5556C197.584 17.0384 197.519 16.5212 197.455 16.0687C197.325 15.5515 197.131 15.1636 196.743 14.8404C196.42 14.5172 195.968 14.3232 195.515 14.2586C194.028 14.0646 191.83 14 188.857 14C185.883 14 183.62 14.0646 182.198 14.2586C181.745 14.3232 181.293 14.5172 180.97 14.8404C180.646 15.1636 180.388 15.5515 180.259 16.0687C180.129 16.5212 180.065 16.9737 180.065 17.5556C180 18.0727 180 18.5252 180 18.9131C180 19.301 180 19.7535 180 20.4C180 21.0465 180 21.5636 180 21.8869C180 22.2747 180.065 22.7273 180.065 23.2444C180.129 23.7616 180.194 24.2788 180.259 24.7313C180.388 25.2485 180.582 25.6364 180.97 25.9596C181.293 26.2828 181.745 26.4768 182.198 26.5414C183.685 26.7354 185.883 26.8 188.857 26.8C191.83 26.8 194.093 26.7354 195.515 26.5414C195.968 26.4768 196.42 26.2828 196.743 25.9596C197.067 25.6364 197.325 25.2485 197.455 24.7313C197.584 24.2788 197.648 23.8263 197.648 23.2444C197.713 22.7273 197.713 22.2747 197.713 21.8869C197.713 21.499 197.713 21.0465 197.713 20.4C197.713 19.7535 197.713 19.2364 197.713 18.9131ZM192.283 20.9172L187.176 24.0848C187.111 24.1495 186.982 24.2141 186.853 24.2141C186.723 24.2141 186.659 24.2141 186.529 24.1495C186.335 24.0202 186.206 23.8263 186.206 23.5677V17.1677C186.206 16.9091 186.335 16.7152 186.529 16.5859C186.723 16.4566 186.982 16.4566 187.176 16.5859L192.283 19.7535C192.477 19.8828 192.606 20.0768 192.606 20.2707C192.606 20.4646 192.477 20.7879 192.283 20.9172Z" fill="white"/>
<circle cx="134" cy="20" r="20" fill="#184B4B"/>
<path d="M144.6 14.9C143.9 15.2 143.1 15.4 142.3 15.5C143.1 15 143.8 14.2 144.1 13.3C143.3 13.8 142.5 14.1 141.5 14.3C140.8 13.5 139.7 13 138.6 13C136.4 13 134.6 14.8 134.6 17C134.6 17.3 134.6 17.6 134.7 17.9C131.4 17.7 128.4 16.1 126.4 13.7C126.1 14.3 125.9 15 125.9 15.7C125.9 17.1 126.6 18.3 127.7 19C127 19 126.4 18.8 125.9 18.5C125.9 20.4 127.3 22.1 129.1 22.4C128.8 22.5 128.4 22.5 128 22.5C127.7 22.5 127.5 22.5 127.2 22.4C127.7 24 129.2 25.2 131 25.2C129.6 26.3 127.9 26.9 126 26.9C125.7 26.9 125.4 26.9 125 26.8C126.8 27.9 128.9 28.6 131.2 28.6C138.6 28.6 142.6 22.5 142.6 17.2V16.7C143.4 16.4 144.1 15.7 144.6 14.9Z" fill="white"/>
<circle cx="77" cy="20" r="20" fill="#184B4B"/>
<path d="M86 13.8186C86 12.3212 84.6788 11 83.1813 11H71.8186C70.3212 11 69 12.3212 69 13.8186V25.1813C69 26.6787 70.3212 28 71.8186 28H77.544V21.5699H75.4301V18.7513H77.544V17.6062C77.544 15.6684 78.9534 13.9948 80.715 13.9948H83.0052V16.8135H80.715C80.4508 16.8135 80.1865 17.0777 80.1865 17.6062V18.7513H83.0052V21.5699H80.1865V28H83.1813C84.6788 28 86 26.6787 86 25.1813V13.8186Z" fill="white"/>
<circle cx="20" cy="20" r="20" fill="#184B4B"/>
<path d="M26.5808 12H14.4192C13.0462 12 12 13.0462 12 14.4192V26.5808C12 27.9538 13.0462 29 14.4192 29H26.5808C27.9538 29 29 27.9538 29 26.5808V14.4192C29 13.0462 27.9538 12 26.5808 12ZM20.5 25.6C23.3115 25.6 25.6 23.3769 25.6 20.6962C25.6 20.2385 25.5346 19.7154 25.4038 19.3231H26.8423V26.2538C26.8423 26.5808 26.5808 26.9077 26.1885 26.9077H14.8115C14.4846 26.9077 14.1577 26.6462 14.1577 26.2538V19.2577H15.6615C15.5308 19.7154 15.4654 20.1731 15.4654 20.6308C15.4 23.3769 17.6885 25.6 20.5 25.6ZM20.5 23.6385C18.6692 23.6385 17.2308 22.2 17.2308 20.4346C17.2308 18.6692 18.6692 17.2308 20.5 17.2308C22.3308 17.2308 23.7692 18.6692 23.7692 20.4346C23.7692 22.2654 22.3308 23.6385 20.5 23.6385ZM26.7769 16.6423C26.7769 17.0346 26.45 17.3615 26.0577 17.3615H24.2269C23.8346 17.3615 23.5077 17.0346 23.5077 16.6423V14.8769C23.5077 14.4846 23.8346 14.1577 24.2269 14.1577H26.0577C26.45 14.1577 26.7769 14.4846 26.7769 14.8769V16.6423Z" fill="white"/>
</svg>
