<svg width="177" height="29" viewBox="0 0 177 29" fill="none" xmlns="http://www.w3.org/2000/svg">
<path fill-rule="evenodd" clip-rule="evenodd" d="M14.4887 22.375L5.22557 28L7.54136 17.875L0.593994 11.125L9.85715 10L14.4887 1L19.1203 10L28.3835 11.125L21.4361 17.875L23.7519 28L14.4887 22.375Z" fill="white" stroke="#DAC34A" stroke-linecap="round" stroke-linejoin="round"/>
<path fill-rule="evenodd" clip-rule="evenodd" d="M52.2031 22.375L42.9399 28L45.2557 17.875L38.3083 11.125L47.5715 10L52.2031 1L56.8347 10L66.0978 11.125L59.1505 17.875L61.4662 28L52.2031 22.375Z" fill="white" stroke="#DAC34A" stroke-linecap="round" stroke-linejoin="round"/>
<path fill-rule="evenodd" clip-rule="evenodd" d="M126.143 22.375L117.211 28L119.444 17.875L112.744 11.125L121.677 10L126.143 1L130.609 10L139.541 11.125L132.842 17.875L135.075 28L126.143 22.375Z" fill="white" stroke="#DAC34A" stroke-linecap="round" stroke-linejoin="round"/>
<path fill-rule="evenodd" clip-rule="evenodd" d="M162.865 22.375L153.932 28L156.165 17.875L149.466 11.125L158.398 10L162.865 1L167.331 10L176.263 11.125L169.564 17.875L171.797 28L162.865 22.375Z" fill="white" stroke="#DAC34A" stroke-linecap="round" stroke-linejoin="round"/>
<path fill-rule="evenodd" clip-rule="evenodd" d="M89.421 22.375L80.4886 28L82.7217 17.875L76.0225 11.125L84.9548 10L89.421 1L93.8871 10L102.819 11.125L96.1202 17.875L98.3533 28L89.421 22.375Z" fill="white" stroke="#DAC34A" stroke-linecap="round" stroke-linejoin="round"/>
</svg>
